<?xml version="1.0" encoding="UTF-8"?>
<svg id="Layer_2" data-name="Layer 2" xmlns="http://www.w3.org/2000/svg" viewBox="0 0 20.35 29.91">
  <defs>
    <style>
      .cls-1 {
        fill: #fff;
      }
    </style>
  </defs>
  <g id="Layer_1-2" data-name="Layer 1">
    <g>
      <path class="cls-1" d="m10.18,0C5.45,0,1.6,3.89,1.6,8.68s3.85,8.68,8.58,8.68,8.57-3.89,8.57-8.68S14.9,0,10.18,0Zm2.91,9.81h-1.79v1.83c0,.62-.51,1.13-1.13,1.13s-1.13-.51-1.13-1.13v-1.83h-1.78c-.63,0-1.13-.51-1.13-1.13s.51-1.13,1.13-1.13h1.78v-1.82c0-.63.51-1.13,1.13-1.13s1.13.51,1.13,1.13v1.82h1.79c.62,0,1.13.51,1.13,1.13s-.51,1.13-1.13,1.13Z"/>
      <path class="cls-1" d="m20,25.12c-1.88-3.78-5.64-6.13-9.81-6.13S2.24,21.34.35,25.12c-1.09,2.2.51,4.79,2.94,4.79h13.76c2.44,0,4.04-2.6,2.94-4.79Zm-2.94,2.53H3.29c-.75,0-1.26-.83-.92-1.52,1.5-3.01,4.49-4.87,7.81-4.87s6.29,1.86,7.79,4.87c.35.69-.17,1.52-.92,1.52Z"/>
    </g>
  </g>
</svg>