<?xml version="1.0" encoding="UTF-8"?>
<svg id="Layer_2" data-name="Layer 2" xmlns="http://www.w3.org/2000/svg" viewBox="0 0 29.68 25.59">
  <defs>
    <style>
      .cls-1 {
        fill: #fff;
      }
    </style>
  </defs>
  <g id="Layer_1-2" data-name="Layer 1">
    <g>
      <path class="cls-1" d="m14.84,25.59c-3.9,0-7.8,0-11.7,0-1.82,0-3.2-1.41-3.13-3.2.04-.97.47-1.77,1.25-2.34.22-.16.28-.31.28-.57,0-5.91,0-11.81,0-17.72C1.53.59,2.13,0,3.31,0c7.69,0,15.37,0,23.06,0,1.2,0,1.78.59,1.78,1.79,0,5.9,0,11.79,0,17.69,0,.26.06.42.28.57,1.08.77,1.52,2.15,1.11,3.41-.41,1.27-1.57,2.13-2.92,2.13-3.92,0-7.85,0-11.77,0Zm12.28-6.15c0-.11,0-.17,0-.23,0-5.84,0-11.68,0-17.52,0-.5-.18-.66-.72-.66-7.71,0-15.41,0-23.12,0-.58,0-.73.15-.73.74,0,5.78,0,11.56,0,17.33,0,.11,0,.22,0,.35.14,0,.24,0,.33,0,3.25,0,6.5,0,9.75,0,.46,0,.61.13.66.58.03.3.21.43.49.44.68,0,1.36,0,2.05,0,.3,0,.47-.17.53-.46.09-.45.21-.56.65-.56,2.92,0,5.84,0,8.76,0,.43,0,.87,0,1.34,0Zm-12.31,5.13c3.92,0,7.84,0,11.77,0,1.17,0,2.07-.9,2.08-2.03,0-1.12-.88-2.06-2.01-2.06-3.04-.01-6.08,0-9.11,0-.1,0-.25.1-.3.19-.32.54-.79.82-1.42.82-.65,0-1.3,0-1.95,0-.63,0-1.09-.29-1.41-.83-.05-.09-.2-.18-.31-.18-.76-.02-1.51,0-2.27,0-2.26,0-4.52,0-6.78,0-1.19,0-2.09.94-2.06,2.1.02,1.13.94,1.99,2.12,1.99,3.89,0,7.78,0,11.67,0Z"/>
      <path class="cls-1" d="m14.82,18.43c-3.17,0-6.33,0-9.5,0-1.14,0-1.75-.6-1.75-1.73,0-4.31,0-8.61,0-12.92,0-1.11.61-1.73,1.71-1.73,6.36,0,12.73,0,19.09,0,1.09,0,1.71.61,1.71,1.7,0,1.75,0,3.5,0,5.25,0,.09,0,.17,0,.26-.03.28-.24.48-.51.48-.27,0-.48-.2-.5-.48-.02-.27,0-.53,0-.8,0-1.57,0-3.13,0-4.7,0-.5-.17-.67-.67-.67-6.37,0-12.75,0-19.12,0-.5,0-.67.17-.67.67,0,4.33,0,8.66,0,12.99,0,.5.17.67.67.67,6.37,0,12.75,0,19.12,0,.5,0,.67-.17.67-.67,0-1.75,0-3.5,0-5.25,0-.1,0-.19,0-.29.05-.28.22-.44.5-.45.28,0,.45.16.51.44.02.08,0,.17,0,.26,0,1.77,0,3.54,0,5.31,0,1.04-.63,1.67-1.68,1.67-3.2,0-6.4,0-9.59,0Z"/>
      <path class="cls-1" d="m9,10.09c-1.32-1.39-.84-3,0-3.77.98-.91,2.5-.91,3.49,0,.82.75,1.33,2.37.01,3.76.31.22.64.41.93.66,1.1.95,1.49,2.19,1.41,3.61-.02.33-.23.49-.62.49-1.48,0-2.96,0-4.44,0-.83,0-1.66,0-2.49,0-.44,0-.61-.18-.63-.62-.06-1.82.66-3.2,2.28-4.07.03-.01.05-.04.07-.06Zm4.82,3.72c-.07-1.23-.6-2.16-1.67-2.71-1.13-.58-2.25-.47-3.27.29-.79.59-1.17,1.41-1.2,2.42h6.14Zm-1.54-5.62c0-.84-.68-1.53-1.52-1.54-.85,0-1.55.68-1.55,1.53,0,.84.68,1.53,1.52,1.54.85,0,1.55-.68,1.55-1.53Z"/>
      <path class="cls-1" d="m19.44,6.14c1.97,0,3.58,1.61,3.58,3.58,0,1.97-1.61,3.58-3.58,3.58-1.97,0-3.58-1.61-3.58-3.59,0-1.97,1.61-3.58,3.58-3.58Zm.02,1.02c-1.42-.01-2.58,1.13-2.58,2.54,0,1.4,1.12,2.56,2.52,2.58,1.42.02,2.59-1.12,2.6-2.53.01-1.42-1.12-2.58-2.53-2.59Z"/>
      <path class="cls-1" d="m18.92,10.25c-.41-.04-.94.12-1-.52-.03-.36.19-.47,1-.54.05-.4-.13-1.01.56-.98.61.02.45.58.49.98.4.06,1-.12.99.54,0,.63-.58.47-.99.51-.04.42.12.97-.54,1.01-.35.02-.46-.21-.51-1Z"/>
    </g>
  </g>
</svg>