<?xml version="1.0" encoding="UTF-8"?>
<svg id="Layer_2" data-name="Layer 2" xmlns="http://www.w3.org/2000/svg" viewBox="0 0 33.35 33.36">
  <defs>
    <style>
      .cls-1 {
        fill: #fff;
      }
    </style>
  </defs>
  <g id="Layer_1-2" data-name="Layer 1">
    <g>
      <path class="cls-1" d="m0,30.76C0,21.37,0,11.99,0,2.61c.02-.04.04-.07.05-.11.12-.75.47-1.36,1.06-1.84.44-.36.96-.52,1.5-.65h14.99c0,2.22,0,4.43,0,6.65,0,.81.37,1.17,1.17,1.17,2.1,0,4.19,0,6.29,0,.11,0,.23,0,.36,0,0,1.71,0,3.37,0,5.03,0,.11-.09.24-.17.33-2.44,2.9-4.89,5.79-7.33,8.68-.5.6-.89,1.26-1.08,2.02-.32,1.3-.65,2.61-.93,3.92-.08.39-.1.83-.02,1.22.38,1.9,2.3,2.86,4.13,2.08,1.14-.48,2.28-.96,3.4-1.48.51-.24.98-.59,1.45-.92.2-.14.35-.33.56-.54,0,.72,0,1.4,0,2.08,0,1.85-1.26,3.1-3.11,3.1-1.05,0-2.11,0-3.16,0-5.33,0-10.66,0-15.99,0-1.05,0-1.96-.34-2.56-1.22-.28-.41-.4-.92-.59-1.39ZM12.71,13.75c2.52,0,5.04,0,7.56,0,.79,0,1.24-.36,1.24-.98,0-.62-.45-.98-1.23-.98-5.04,0-10.08,0-15.12,0-.11,0-.22,0-.33,0-.41.04-.71.26-.85.65-.24.67.25,1.29,1.01,1.3,2.57,0,5.15,0,7.72,0Zm-1.95,5.86c.94,0,1.89,0,2.83,0,1.01,0,2.02,0,3.03,0,.56,0,.98-.43.98-.97,0-.54-.41-.95-.97-.98-.11,0-.22,0-.33,0-3.63,0-7.25,0-10.88,0-.18,0-.37,0-.55,0-.42.03-.72.23-.88.62-.26.66.22,1.32.97,1.33,1.93,0,3.87,0,5.8,0Zm-.98-11.79c1.6,0,3.19,0,4.79,0,.5,0,.85-.22,1.01-.62.26-.67-.23-1.33-1-1.33-2.37,0-4.73,0-7.1,0-.84,0-1.67,0-2.51,0-.47,0-.83.24-.98.62-.26.66.22,1.32.97,1.33,1.61,0,3.21,0,4.82,0Zm-1.01,17.66c1.27,0,2.54,0,3.81,0,.67,0,1.11-.39,1.11-.97,0-.58-.44-.98-1.1-.98-1.05,0-2.11,0-3.16,0-1.48,0-2.95,0-4.43,0-.5,0-.85.23-1.01.62-.26.66.22,1.32.97,1.33,1.27,0,2.54,0,3.81,0Z"/>
      <path class="cls-1" d="m2.61,0c-.54.13-1.06.29-1.5.65C.52,1.14.17,1.74.05,2.49.04,2.53.02,2.57,0,2.61c0-.87,0-1.74,0-2.61h2.61Z"/>
      <path class="cls-1" d="m25.39,25.12c-1.51-1.27-2.99-2.51-4.49-3.77,1.8-2.13,3.59-4.25,5.4-6.39,1.5,1.25,2.98,2.5,4.49,3.77-1.8,2.13-3.59,4.25-5.4,6.39Z"/>
      <path class="cls-1" d="m19.65,22.85c1.5,1.25,2.98,2.5,4.47,3.75-.41.57-.9,1-1.53,1.27-1.11.47-2.21.95-3.31,1.43-.43.19-.84.21-1.21-.13-.3-.28-.36-.64-.27-1.02.29-1.24.59-2.49.89-3.73.15-.6.41-1.03.95-1.57Z"/>
      <path class="cls-1" d="m25.33,5.85h-5.76V.1c.38.21.78.34,1.06.59,1.36,1.26,2.7,2.54,4.04,3.83.36.35.57.81.67,1.33Z"/>
      <path class="cls-1" d="m32.07,17.24c-1.52-1.28-3.01-2.52-4.5-3.77.55-.69,1.08-1.35,1.95-1.65,1.11-.38,2.48.01,3.22.96.75.96.82,2.37.16,3.35-.25.37-.53.71-.83,1.11Z"/>
    </g>
  </g>
</svg>