<?xml version="1.0" encoding="UTF-8"?>
<svg id="Layer_2" data-name="Layer 2" xmlns="http://www.w3.org/2000/svg" viewBox="0 0 37.68 31.98">
  <defs>
    <style>
      .cls-1 {
        fill: #fff;
      }
    </style>
  </defs>
  <g id="Layer_1-2" data-name="Layer 1">
    <g>
      <path class="cls-1" d="m2.39,27.14c0-.21,0-.37,0-.52,0-6.55,0-13.1,0-19.65,0-1.47.73-2.62,1.99-3.06.41-.14.87-.19,1.3-.19,5.8-.01,11.6,0,17.4,0h.46c.05-.22.08-.42.13-.62C24.15,1.22,25.86-.07,27.76,0c1.97.07,3.58,1.45,3.91,3.38.05.28.15.33.4.33,1.96.02,3.22,1.29,3.22,3.26,0,6.55,0,13.1,0,19.65v.52c.61,0,1.2,0,1.78,0,.48,0,.59.11.6.58,0,.74,0,1.48,0,2.22-.01,1.15-.81,1.97-1.96,2.03-.12,0-.25,0-.37,0-11.01,0-22.01,0-33.02,0-.28,0-.57,0-.84-.07-.85-.21-1.46-.97-1.48-1.85-.02-.8,0-1.6,0-2.4,0-.37.14-.5.52-.5.6,0,1.2,0,1.86,0Zm32.12-.02c0-.12,0-.23,0-.34,0-6.64,0-13.27,0-19.91,0-1.43-.98-2.39-2.42-2.4-.24,0-.35.04-.4.32-.33,1.95-1.95,3.32-3.95,3.39-1.86.07-3.58-1.24-4.05-3.09-.05-.2-.09-.4-.13-.61-.09,0-.17-.01-.24-.01-5.91,0-11.82,0-17.73,0-1.45,0-2.4.97-2.4,2.42,0,6.62,0,13.25,0,19.87,0,.12,0,.23,0,.35h31.33Zm-7.36-22.73c-.14-.13-.24-.23-.35-.33-.19-.19-.41-.26-.61-.04-.18.19-.13.41.05.59.17.18.34.35.52.52.29.28.45.28.75-.01.5-.49.99-.99,1.49-1.48.2-.2.35-.42.11-.67-.24-.25-.46-.1-.66.1-.43.44-.86.87-1.3,1.33Z"/>
      <path class="cls-1" d="m22.94,10.55c0,2.27-1.87,4.12-4.12,4.1-2.26-.02-4.07-1.85-4.07-4.11,0-2.27,1.85-4.1,4.12-4.09,2.25,0,4.08,1.85,4.07,4.1Zm-4.11,3.38c.49-.14.97-.27,1.45-.41.19-.06.22-.19.17-.38-.18-.68-.86-1.2-1.59-1.21-.74,0-1.43.52-1.63,1.21-.06.21,0,.34.2.4.45.13.91.26,1.4.4Zm.02-4.98c-.61,0-1.11.49-1.11,1.09,0,.59.49,1.08,1.08,1.09.61.01,1.12-.47,1.13-1.08,0-.6-.48-1.1-1.1-1.1Z"/>
      <path class="cls-1" d="m18.84,19.89c2.47,0,4.95,0,7.42,0,1.13,0,1.89.89,1.75,1.99-.1.8-.78,1.43-1.6,1.48-.07,0-.15,0-.22,0-4.9,0-9.8,0-14.69,0-1.18,0-1.97-.88-1.83-2,.11-.83.81-1.47,1.67-1.48,1.22-.01,2.44,0,3.65,0,1.28,0,2.56,0,3.84,0Zm0,2.69c2.39,0,4.77,0,7.16,0,.15,0,.3,0,.44-.01.57-.07.94-.65.78-1.2-.14-.47-.48-.7-1.08-.7-4.86,0-9.72,0-14.58,0-.11,0-.22,0-.33.03-.43.08-.75.43-.78.86-.03.42.24.85.65.97.17.05.36.05.55.05,2.4,0,4.8,0,7.2,0Z"/>
      <path class="cls-1" d="m18.84,15.53c2.47,0,4.95,0,7.42,0,1.14,0,1.91.92,1.74,2.03-.13.84-.86,1.44-1.78,1.45-1.57,0-3.15,0-4.72,0-3.33,0-6.67,0-10,0-1.17,0-1.97-.88-1.82-2,.11-.86.84-1.47,1.79-1.47,2.46,0,4.92,0,7.38,0Zm0,2.69c2.39,0,4.77,0,7.16,0,.81,0,1.27-.35,1.26-.96,0-.6-.46-.95-1.24-.95-4.77,0-9.55,0-14.32,0-.18,0-.37,0-.55.05-.42.09-.72.5-.71.92,0,.43.32.82.73.91.17.03.34.03.51.03,2.39,0,4.77,0,7.16,0Z"/>
      <path class="cls-1" d="m18.84,25.19c-.66,0-1.33,0-1.99,0-.27,0-.51-.07-.51-.39,0-.31.23-.39.51-.39,1.33,0,2.65,0,3.98,0,.28,0,.51.08.51.39,0,.32-.23.4-.51.4-.66,0-1.33,0-1.99,0Z"/>
    </g>
  </g>
</svg>