<?xml version="1.0" encoding="UTF-8"?>
<svg id="Layer_2" data-name="Layer 2" xmlns="http://www.w3.org/2000/svg" viewBox="0 0 30.58 30.71">
  <defs>
    <style>
      .cls-1 {
        fill: #fff;
      }
    </style>
  </defs>
  <g id="Layer_1-2" data-name="Layer 1">
    <g>
      <path class="cls-1" d="m29.9,26.5h-1.14v-12.01c0-1.87,0-3.75,0-5.62,0-1.06-.78-1.9-1.77-1.94h-1.43v-1.48c0-.19-.07-.44-.2-.58-1.51-1.53-3.03-3.05-4.55-4.57-.23-.23-.45-.31-.76-.31-1.83.01-3.66,0-5.49,0h-7.58c-.48,0-.9.09-1.26.43-.4.37-.52.84-.52,1.36v5.13h-1.59c-.05,0-.1.01-.14.02-1.01.14-1.66.91-1.66,1.99v17.55H.61c-.54,0-.65.11-.59.65.19,1.94,1.63,3.41,3.58,3.51,1.54.08,3.08.03,4.63.04h18.28c2.19,0,3.77-1.34,4.05-3.45.09-.64-.01-.75-.65-.75ZM5.93,1.87c0-.14,0-.28.02-.41.06-.39.36-.68.75-.73.13-.01.25-.01.38-.01,4.26,0,8.53,0,12.79,0,.25,0,.43.07.6.25,1.19,1.2,2.4,2.39,3.59,3.59.08.08.15.16.26.28-.95,0-1.86.03-2.76-.01-.52-.03-.84-.46-.86-.99-.01-.45,0-.89,0-1.34,0-.25-.05-.49-.35-.49-.29,0-.36.22-.36.48,0,.44-.02.89,0,1.34.03,1.02.76,1.73,1.78,1.73,1.02.01,2.03,0,3.08,0v17.72H5.93V1.87Zm-2.28,5.84h1.57v15.56c-.25,0-.46,0-.68,0-.27,0-.59-.06-.63.34-.03.26.18.37.64.37h21.3c.1,0,.23.03.31-.01.13-.09.24-.23.36-.34-.11-.12-.21-.29-.35-.34-.17-.06-.38-.01-.59-.01v-.5c0-5.02,0-10.04,0-15.06h1.09c.08,0,.16,0,.23,0,.08,0,.16.03.24.05.12.03.23.07.34.13.17.09.32.21.4.39.1.21.12.45.13.68,0,.06,0,.11,0,.17v17.37H2.59s0-.05,0-.07c0-5.77,0-11.52,0-17.29,0-.77.31-1.36,1.07-1.43Zm23.84,22.19c-.29.06-.59.09-.88.09-7.55,0-15.09,0-22.64,0-1.61,0-2.86-.97-3.2-2.46-.02-.09-.02-.18-.04-.29h29.08c-.03,1.17-1.08,2.37-2.33,2.66Z"/>
      <path class="cls-1" d="m11.07,2.76c2.05,0,3.74,1.67,3.75,3.72.01,2.07-1.65,3.76-3.72,3.78-2.05.02-3.76-1.68-3.77-3.74,0-2.07,1.67-3.76,3.74-3.76Zm.03.71c-1.69,0-3.06,1.35-3.07,3.03,0,1.68,1.37,3.06,3.05,3.06,1.67,0,3.04-1.35,3.05-3.02.01-1.68-1.34-3.06-3.03-3.07Z"/>
      <path class="cls-1" d="m17.64,18.06c1.34,0,2.67,0,4.01,0,.11,0,.25-.02.34.03.11.07.27.2.26.3,0,.12-.14.27-.25.35-.08.06-.22.03-.33.03-2.7,0-5.4,0-8.09,0-.1,0-.23.03-.3-.02-.12-.08-.29-.23-.28-.33.01-.13.17-.26.3-.34.08-.05.22-.02.34-.02,1.34,0,2.67,0,4.01,0Z"/>
      <path class="cls-1" d="m17.62,12.83c-1.35,0-2.7,0-4.05,0-.1,0-.23.03-.3-.02-.12-.08-.28-.21-.28-.32,0-.12.15-.26.26-.34.07-.05.2-.02.3-.02,2.71,0,5.42,0,8.13,0,.11,0,.25-.02.33.03.11.07.25.22.24.32-.01.12-.16.25-.28.33-.07.05-.2.02-.3.02-1.35,0-2.7,0-4.05,0Z"/>
      <path class="cls-1" d="m19.53,8.54c-.93,0-1.85,0-2.78,0-.11,0-.26.03-.33-.03-.11-.08-.25-.22-.25-.35,0-.1.14-.24.25-.31.09-.05.22-.03.34-.03,1.84,0,3.68,0,5.52,0,.02,0,.05,0,.07,0,.26,0,.55.01.55.36,0,.34-.29.36-.55.36-.94,0-1.87,0-2.81,0Z"/>
      <path class="cls-1" d="m16.21,15.68c-.88,0-1.76,0-2.64,0-.1,0-.23.03-.3-.02-.12-.09-.27-.23-.28-.36,0-.1.17-.23.29-.31.06-.04.18-.02.27-.02,1.78,0,3.56,0,5.34,0,.09,0,.2-.03.27.02.12.08.3.21.29.31,0,.13-.15.27-.27.36-.07.05-.2.02-.3.02-.89,0-1.78,0-2.67,0Z"/>
      <path class="cls-1" d="m15.29,20.82c.63,0,1.26,0,1.88,0,.24,0,.45.05.45.34,0,.28-.2.36-.44.36-1.26,0-2.51,0-3.77,0-.25,0-.44-.1-.44-.37,0-.25.19-.34.43-.34.63,0,1.26,0,1.88,0Z"/>
      <path class="cls-1" d="m17.74,5.1c.39,0,.78,0,1.16,0,.23,0,.42.08.42.34,0,.27-.19.37-.44.36-.76,0-1.53,0-2.29,0-.25,0-.44-.09-.44-.36,0-.28.21-.35.46-.34.38,0,.75,0,1.13,0Z"/>
      <path class="cls-1" d="m9.93,14.97c.34,0,.68,0,1.03,0,.23,0,.41.1.41.35,0,.25-.19.35-.42.35-.7,0-1.39,0-2.09,0-.23,0-.42-.09-.43-.34,0-.28.19-.36.43-.37.35,0,.71,0,1.06,0Z"/>
      <path class="cls-1" d="m9.92,18.77c-.35,0-.71,0-1.06,0-.23,0-.41-.1-.42-.35,0-.26.18-.36.41-.36.71,0,1.41,0,2.12,0,.23,0,.41.1.4.36,0,.25-.19.34-.43.34-.34,0-.68,0-1.03,0Z"/>
      <path class="cls-1" d="m9.9,12.83c-.34,0-.68,0-1.03,0-.25,0-.45-.07-.44-.35,0-.25.19-.35.42-.35.7,0,1.39,0,2.09,0,.23,0,.42.09.42.34,0,.28-.19.36-.44.36-.34,0-.68,0-1.03,0Z"/>
      <path class="cls-1" d="m9.92,20.82c.35,0,.71,0,1.06,0,.22,0,.39.1.39.33,0,.25-.16.37-.4.37-.71,0-1.41,0-2.12,0-.24,0-.41-.11-.41-.36,0-.26.18-.34.42-.34.35,0,.71,0,1.06,0Z"/>
      <path class="cls-1" d="m11.07,8.42c-.43,0-.87,0-1.3,0-.34,0-.47-.16-.44-.5.07-.82.85-1.48,1.73-1.49.89,0,1.67.64,1.75,1.46.04.37-.1.52-.48.53-.42,0-.84,0-1.27,0Zm.93-.71c-.2-.4-.57-.61-.99-.57-.37.04-.69.16-.87.57h1.86Z"/>
      <path class="cls-1" d="m11.05,6.16c-.52-.01-.95-.45-.95-.97,0-.55.46-.98,1.02-.96.52.02.95.47.93.98-.01.54-.46.96-1,.95Zm.4-.99c-.18-.12-.3-.26-.37-.23-.11.03-.18.18-.26.28.09.08.19.22.28.22.09,0,.19-.14.36-.27Z"/>
    </g>
  </g>
</svg>