<?xml version="1.0" encoding="UTF-8"?>
<svg id="Layer_2" data-name="Layer 2" xmlns="http://www.w3.org/2000/svg" viewBox="0 0 33.93 31.67">
  <defs>
    <style>
      .cls-1 {
        fill: #fff;
      }
    </style>
  </defs>
  <g id="Layer_1-2" data-name="Layer 1">
    <g>
      <path class="cls-1" d="m22.05,8.3c.8,0,1.59,0,2.38,0,1.97,0,3.95,0,5.92,0,1.3,0,2.02.71,2.02,2.02,0,5.53,0,11.06,0,16.6,0,.15,0,.31,0,.53.35,0,.67,0,1,0,.48,0,.56.09.56.56,0,.57,0,1.13,0,1.7,0,1.16-.81,1.97-1.97,1.97-3.06,0-6.12,0-9.18,0-6.91,0-13.81,0-20.72,0-1.06,0-1.87-.56-2-1.52-.1-.78-.05-1.59-.05-2.39,0-.24.21-.32.43-.32.35,0,.71,0,1.12,0,0-.18,0-.32,0-.47,0-5.53,0-11.06,0-16.6,0-.35.04-.72.18-1.03.32-.71.92-1.04,1.71-1.04,2.58,0,5.17,0,7.75,0,.13,0,.26,0,.39,0,.12-.36.07-.64-.18-.88-.21-.21-.43-.42-.62-.65-.41-.47-.41-.97,0-1.44.15-.18.31-.35.49-.5.36-.3.44-.67.34-1.1-.04-.21-.08-.41-.1-.62-.06-.61.24-1.03.84-1.17.26-.06.52-.1.78-.14.36-.05.62-.2.76-.55.06-.14.13-.28.2-.42.42-.84.99-1.03,1.83-.6.17.09.33.17.5.27.26.15.52.14.79,0,.26-.14.53-.29.8-.4.55-.21,1-.07,1.33.42.15.23.28.48.39.73.14.33.38.5.73.54.27.04.55.08.82.14.58.14.86.52.82,1.11-.02.32-.11.64-.11.96,0,.21.09.44.19.63.1.18.28.31.43.46.7.71.7,1.22,0,1.93-.13.13-.27.26-.4.4-.28.31-.3.42-.17.88ZM2.27,27.41h29.39v-.36c0-5.58,0-11.15,0-16.73,0-.9-.42-1.32-1.32-1.32-2.62,0-5.23,0-7.85,0h-.34c-.04.91-.65,1.16-1.38,1.26-.1.01-.2.04-.29.05-.33.02-.55.19-.7.48-.14.28-.28.56-.44.82-.31.48-.73.61-1.26.41-.25-.1-.49-.21-.72-.35-.36-.21-.71-.2-1.07.01-.19.11-.39.21-.59.3-.63.27-1.08.13-1.44-.46-.07-.12-.16-.25-.2-.38-.2-.59-.61-.82-1.22-.88-.9-.09-1.17-.37-1.36-1.25-.1,0-.21,0-.32,0-2.52,0-5.03,0-7.55,0-.91,0-1.33.42-1.33,1.31,0,5.58,0,11.15,0,16.73,0,.12,0,.24,0,.37ZM21.41,3.09c.03-.27-.08-.43-.34-.48-.17-.04-.35-.08-.52-.09-.74-.04-1.21-.41-1.51-1.1-.38-.87-.43-.88-1.27-.4-.63.35-1.21.37-1.85.01-.87-.49-.9-.48-1.31.43-.29.64-.75.97-1.44,1.06-.99.13-1.02.15-.83,1.13.14.71-.05,1.24-.58,1.71-.69.62-.7.75-.01,1.35.59.51.75,1.1.58,1.84-.19.84-.12.93.75,1.01.73.07,1.23.39,1.54,1.07.41.9.45.91,1.31.43.62-.35,1.2-.35,1.82,0,.88.49.91.48,1.33-.44.28-.62.71-.94,1.38-1.03,1.06-.14,1.07-.16.86-1.2-.12-.61,0-1.12.48-1.53.17-.14.31-.31.47-.47.21-.22.22-.45,0-.67-.19-.19-.37-.38-.56-.57-.33-.32-.48-.71-.41-1.17.05-.29.09-.59.13-.89Zm11.79,25.06c-2.99,0-5.94,0-8.88,0-.08,0-.19.09-.22.17-.38.98-.98,1.4-2.02,1.4-1.37,0-2.75,0-4.12,0-2.05,0-4.1,0-6.15,0-.94,0-1.65-.48-1.91-1.31-.08-.24-.19-.27-.4-.27-2.8,0-5.61,0-8.41,0-.11,0-.21,0-.34.01,0,.62-.02,1.22.01,1.82,0,.18.12.38.24.53.28.38.68.44,1.12.44,9.91,0,19.81,0,29.72,0,.12,0,.24,0,.37-.01.5-.05.96-.47.99-.97.04-.59,0-1.19,0-1.83Zm-9.83.03h-12.79c.17.55.57.83,1.2.83,2.48,0,4.96,0,7.44,0,1,0,1.99,0,2.99,0,.59,0,1-.3,1.16-.83Z"/>
      <path class="cls-1" d="m15.84,18.4c0,1.43,0,2.86,0,4.29,0,1.19-.77,1.97-1.95,1.97-2.87,0-5.74,0-8.61,0-1.18,0-1.95-.79-1.95-1.97,0-2.86,0-5.72,0-8.58,0-1.18.76-1.97,1.95-1.97,2.87,0,5.74,0,8.61,0,1.19,0,1.94.78,1.95,1.97,0,1.43,0,2.86,0,4.29Zm-11.8,0c0,1.41,0,2.82,0,4.22,0,.9.43,1.33,1.32,1.33,2.82,0,5.63,0,8.45,0,.88,0,1.32-.44,1.32-1.33,0-2.82,0-5.63,0-8.45,0-.89-.44-1.33-1.33-1.33-2.82,0-5.63,0-8.45,0-.89,0-1.32.44-1.32,1.33,0,1.41,0,2.82,0,4.22Z"/>
      <path class="cls-1" d="m23.72,23.56c-1.58,0-3.17,0-4.75,0-1.28,0-2.05-1.21-1.52-2.37.23-.51.63-.81,1.19-.89.12-.02.24-.03.36-.03,3.16,0,6.31,0,9.47,0,1.16,0,1.89.92,1.66,2.04-.15.73-.8,1.25-1.59,1.25-1.61,0-3.21,0-4.82,0Zm0-.72h0c1.61,0,3.21,0,4.82,0,.57,0,.94-.4.93-.95,0-.52-.4-.92-.94-.92-3.2,0-6.41,0-9.61,0-.6,0-.98.45-.91,1.05.06.52.39.81.95.81,1.59,0,3.17,0,4.76,0Z"/>
      <path class="cls-1" d="m23.72,19.12c-1.6,0-3.19.01-4.79,0-1.19-.01-1.92-1.04-1.57-2.18.21-.69.78-1.1,1.56-1.1,1.77,0,3.54,0,5.32,0,1.45,0,2.9,0,4.35,0,.8,0,1.45.6,1.55,1.37.11.88-.35,1.63-1.15,1.85-.2.05-.42.06-.62.06-1.55,0-3.1,0-4.65,0Zm0-.7c.72,0,1.44,0,2.16,0,.86,0,1.73,0,2.59,0,.74,0,1.18-.63.93-1.29-.15-.4-.46-.59-1.01-.59-2.94,0-5.87,0-8.81,0-.24,0-.49,0-.73,0-.48.03-.77.32-.83.79-.08.64.31,1.08.99,1.08,1.57,0,3.15,0,4.72,0Z"/>
      <path class="cls-1" d="m23.68,13.58c-1.07,0-2.15,0-3.22,0-.24,0-.4-.1-.4-.34,0-.24.15-.35.39-.36.09,0,.18,0,.27,0,1.3,0,2.59,0,3.89,0,.74,0,1.48,0,2.23,0,.26,0,.54-.01.57.34.02.25-.17.36-.59.36-.07,0-.13,0-.2,0-.97,0-1.95,0-2.92,0Z"/>
      <path class="cls-1" d="m16.05,7.33c1.04-1.04,2.06-2.06,3.07-3.08.08-.08.15-.2.24-.22.14-.04.37-.06.44.01.09.1.07.31.05.46,0,.07-.11.13-.17.19-1.07,1.07-2.14,2.15-3.22,3.22-.35.35-.46.35-.82,0-.56-.56-1.13-1.13-1.69-1.69-.28-.28-.32-.47-.13-.64.28-.24.46-.03.64.15.52.52,1.04,1.05,1.58,1.59Z"/>
      <path class="cls-1" d="m12.06,18.64c.92.66,1.55,1.52,1.8,2.61.09.4.11.81.12,1.22.01.29-.15.44-.46.44-2.63,0-5.25,0-7.88,0-.37,0-.47-.12-.48-.52,0-1.46.56-2.64,1.69-3.56.07-.06.14-.11.2-.17,0,0,0-.02.02-.05-.47-.69-.63-1.46-.45-2.29.16-.72.52-1.31,1.09-1.77,1.09-.87,2.69-.85,3.74.05.95.81,1.6,2.45.57,4.05Zm-.49.56c-1.5.97-2.44.97-3.98,0-1.01.57-1.83,2.05-1.66,2.97h7.33c.01-1.16-.72-2.43-1.69-2.97Zm.28-2.27c0-1.32-.96-2.3-2.27-2.3-1.3,0-2.26.97-2.26,2.28,0,1.32.97,2.31,2.27,2.31,1.29,0,2.26-.98,2.26-2.28Z"/>
    </g>
  </g>
</svg>