<?xml version="1.0" encoding="UTF-8"?>
<svg id="Layer_2" data-name="Layer 2" xmlns="http://www.w3.org/2000/svg" viewBox="0 0 34.21 32.57">
  <defs>
    <style>
      .cls-1, .cls-2 {
        fill: #fff;
      }

      .cls-2 {
        stroke: #fff;
        stroke-miterlimit: 10;
      }
    </style>
  </defs>
  <g id="Layer_1-2" data-name="Layer 1">
    <g>
      <path class="cls-2" d="m26.66,6.67c1.92-1.93,3.8-3.81,5.68-5.69.14-.14.27-.37.44-.41.26-.07.69-.12.81.02.16.18.12.57.09.86-.01.13-.2.24-.32.36-1.98,1.98-3.96,3.96-5.94,5.94-.65.65-.86.65-1.51,0-1.04-1.04-2.08-2.08-3.12-3.12-.52-.52-.6-.87-.24-1.19.51-.45.85-.06,1.19.28.96.97,1.93,1.94,2.92,2.94Z"/>
      <path class="cls-1" d="m26.43,11.41c-4.62,0-8.37-3.75-8.37-8.37,0-.64.09-1.25.22-1.85-.79-.12-1.58-.21-2.4-.21C7.11.94.01,7.99,0,16.74c-.01,8.68,6.99,15.75,15.69,15.83,8.67.08,15.85-7.06,15.88-15.79,0-2.25-.47-4.38-1.32-6.32-1.15.59-2.44.96-3.82.96Zm-10.63-.79c2.37.01,4.27,1.92,4.23,4.25-.03,2.33-1.99,4.2-4.34,4.15-2.28-.05-4.15-1.93-4.16-4.19-.01-2.33,1.91-4.22,4.27-4.21Zm5.52,17.58c-1.84.54-3.69,1.05-5.58,1.59-1.88-.53-3.64-1.02-5.39-1.53-.77-.23-.98-.72-.75-1.52.75-2.67,3.43-4.69,6.27-4.66,2.81.04,5.41,2.04,6.11,4.67.19.71.1,1.23-.66,1.45Z"/>
    </g>
  </g>
</svg>